<svg width="431" height="382" viewBox="0 0 431 382" fill="none" xmlns="http://www.w3.org/2000/svg">
<g clip-path="url(#clip0_1_1669)">
<path d="M338.656 168.864L225.736 96.0111C219.583 92.0412 212.315 90.0175 205 90.2374L70.6737 94.2489C59.3384 94.5865 55.4514 108.547 64.9811 114.694L84.6675 127.395C78.2918 131.993 73.3754 138.399 70.8872 146.221C65.9302 147.508 61.6817 151.138 60.1971 156.47C58.8511 161.305 60.2358 166.073 63.1368 169.684L37.4779 218.052C35.2467 222.258 37.4311 227.447 41.9649 228.71L66.8317 235.633C71.3699 236.897 75.9218 233.583 76.1854 228.829L79.2154 174.16C83.5648 172.569 87.2146 169.202 88.5607 164.368C90.0054 159.179 88.3467 154.04 84.9756 150.385C87.1879 143.743 92.2497 138.735 98.73 136.471L177.9 187.551C181.568 189.916 188.837 193.617 198.636 193.325L332.963 189.314C344.303 188.973 348.189 175.017 338.656 168.864ZM198.983 208.203C185.245 208.611 175.075 203.441 169.914 200.11L111.207 162.236L90.7554 211.368C86.3415 227.221 120.86 250.677 167.855 263.762C214.85 276.846 256.523 274.605 260.937 258.752L268.821 206.116L198.983 208.203Z" fill="#43056C"/>
</g>
<defs>
<clipPath id="clip0_1_1669">
<rect width="364.468" height="295.046" fill="white" transform="translate(79.1399) rotate(15.5589)"/>
</clipPath>
</defs>
</svg>
